<svg width="578" height="821" viewBox="0 0 578 821" fill="none" xmlns="http://www.w3.org/2000/svg">
<path fill-rule="evenodd" clip-rule="evenodd" d="M0 -200.168C0 -202.716 2.0731 -204.782 4.62139 -204.782C6.94562 -204.782 8.87455 -203.064 9.19579 -200.828H113.601C113.922 -203.064 115.851 -204.782 118.176 -204.782C120.5 -204.782 122.429 -203.064 122.75 -200.828H227.155C227.477 -203.064 229.405 -204.782 231.73 -204.782C234.054 -204.782 235.983 -203.064 236.304 -200.828H340.709C341.031 -203.064 342.96 -204.782 345.284 -204.782C347.608 -204.782 349.537 -203.064 349.858 -200.828H454.264C454.585 -203.064 456.514 -204.782 458.838 -204.782C461.162 -204.782 463.091 -203.064 463.412 -200.828H567.818C568.139 -203.064 570.068 -204.782 572.392 -204.782C574.94 -204.782 577.014 -202.716 577.014 -200.168C577.014 -197.844 575.289 -195.921 573.052 -195.601V-91.3612C575.289 -91.041 577.014 -89.1182 577.014 -86.7939C577.014 -84.4697 575.289 -82.5469 573.052 -82.2267V22.0142C575.289 22.3344 577.014 24.2573 577.014 26.5815C577.014 28.9057 575.289 30.8286 573.052 31.1487V135.388C575.289 135.709 577.014 137.631 577.014 139.956C577.014 142.28 575.289 144.203 573.052 144.523V248.764C575.289 249.084 577.014 251.007 577.014 253.331C577.014 255.655 575.289 257.578 573.052 257.898V362.138C575.289 362.458 577.014 364.381 577.014 366.705C577.014 369.03 575.289 370.952 573.052 371.273V475.513C575.289 475.834 577.014 477.757 577.014 480.081C577.014 482.405 575.289 484.328 573.052 484.648V588.888C575.289 589.208 577.014 591.131 577.014 593.455C577.014 595.779 575.289 597.702 573.052 598.022V702.263C575.289 702.583 577.014 704.506 577.014 706.83C577.014 709.155 575.289 711.077 573.052 711.398V820.864H459.498H458.178H345.944H344.624H232.39H231.069H118.836H117.515H3.96105V711.398C1.72443 711.077 0 709.154 0 706.83C0 704.506 1.72475 702.583 3.96167 702.263V598.022C1.72475 597.702 0 595.779 0 593.455C0 591.131 1.72443 589.208 3.96105 588.888V484.648C1.72443 484.328 0 482.405 0 480.081C0 477.756 1.72475 475.833 3.96167 475.513V371.273C1.72475 370.953 0 369.03 0 366.705C0 364.381 1.72443 362.458 3.96105 362.138V257.898C1.72443 257.578 0 255.655 0 253.331C0 251.007 1.72475 249.084 3.96167 248.764V144.523C1.72475 144.203 0 142.28 0 139.956C0 137.632 1.72443 135.709 3.96105 135.388V31.1487C1.72443 30.8284 0 28.9056 0 26.5815C0 24.2571 1.72475 22.3342 3.96167 22.0142V-82.2266C1.72475 -82.5466 0 -84.4696 0 -86.7939C0 -89.1181 1.72443 -91.0409 3.96105 -91.3612V-195.601C1.72443 -195.921 0 -197.844 0 -200.168ZM567.818 707.489C568.108 709.51 569.711 711.108 571.732 711.398V819.545H459.498L459.498 711.398C461.519 711.108 463.123 709.51 463.413 707.489H567.818ZM571.732 702.263C569.711 702.552 568.108 704.15 567.818 706.17H463.412C463.122 704.15 461.519 702.552 459.498 702.263L459.498 598.022C461.519 597.733 463.122 596.135 463.412 594.115H567.818C568.108 596.135 569.711 597.733 571.732 598.022V702.263ZM571.732 484.648V588.888C569.711 589.177 568.108 590.775 567.818 592.796H463.413C463.122 590.775 461.519 589.177 459.498 588.888L459.498 484.648C461.52 484.359 463.123 482.76 463.413 480.74H567.818C568.108 482.76 569.711 484.359 571.732 484.648ZM571.732 475.514C569.711 475.803 568.108 477.401 567.818 479.421H463.412C463.122 477.401 461.519 475.803 459.498 475.513L459.498 371.273C461.519 370.983 463.122 369.385 463.412 367.365H567.818C568.108 369.385 569.711 370.983 571.732 371.273V475.514ZM571.732 257.898V362.138C569.711 362.427 568.108 364.026 567.818 366.046H463.413C463.122 364.026 461.519 362.427 459.498 362.138L459.498 257.898C461.52 257.609 463.123 256.011 463.413 253.99H567.818C568.108 256.011 569.711 257.609 571.732 257.898ZM571.732 248.764C569.711 249.053 568.108 250.651 567.818 252.671H463.412C463.122 250.651 461.519 249.053 459.498 248.764L459.498 144.523C461.519 144.234 463.122 142.636 463.412 140.615H567.818C568.108 142.635 569.711 144.233 571.732 144.523V248.764ZM571.732 31.1487V135.388C569.711 135.678 568.108 137.276 567.818 139.296H463.413C463.122 137.276 461.519 135.678 459.498 135.388L459.498 31.1487C461.519 30.8594 463.123 29.2611 463.413 27.2405H567.818C568.108 29.261 569.711 30.8593 571.732 31.1487ZM571.732 22.0143C569.711 22.3037 568.108 23.9015 567.818 25.9216H463.412C463.122 23.9014 461.519 22.3035 459.498 22.0142L459.498 -82.2267C461.519 -82.516 463.122 -84.114 463.412 -86.1343H567.818C568.108 -84.1141 569.711 -82.5161 571.732 -82.2267V22.0143ZM571.732 -195.601V-91.3612C569.711 -91.0717 568.108 -89.4736 567.818 -87.4532H463.413C463.122 -89.4737 461.519 -91.0719 459.498 -91.3612V-195.601C461.52 -195.89 463.123 -197.489 463.413 -199.51H567.818C568.107 -197.489 569.71 -195.89 571.732 -195.601ZM349.858 -199.51H454.263C454.553 -197.489 456.156 -195.89 458.178 -195.601V-91.3612C456.156 -91.0717 454.554 -89.4736 454.264 -87.4532H349.858C349.568 -89.4737 347.965 -91.0719 345.944 -91.3612V-195.601C347.966 -195.89 349.569 -197.489 349.858 -199.51ZM454.264 -86.1343H349.858C349.568 -84.114 347.965 -82.516 345.944 -82.2267L345.944 22.0142C347.965 22.3035 349.568 23.9014 349.858 25.9216H454.264C454.554 23.9015 456.157 22.3037 458.178 22.0143V-82.2267C456.157 -82.5161 454.554 -84.1141 454.264 -86.1343ZM349.858 27.2405H454.263C454.553 29.261 456.156 30.8593 458.178 31.1487V135.388C456.156 135.678 454.554 137.276 454.264 139.296H349.858C349.568 137.276 347.965 135.678 345.944 135.388L345.944 31.1487C347.965 30.8594 349.568 29.2611 349.858 27.2405ZM454.264 140.615H349.858C349.568 142.636 347.965 144.234 345.944 144.523L345.944 248.764C347.965 249.053 349.568 250.651 349.858 252.671H454.264C454.554 250.651 456.157 249.053 458.178 248.764V144.523C456.157 144.233 454.554 142.635 454.264 140.615ZM349.858 253.99H454.263C454.553 256.011 456.156 257.609 458.178 257.898V362.138C456.156 362.427 454.554 364.026 454.264 366.046H349.858C349.568 364.026 347.965 362.427 345.944 362.138L345.944 257.898C347.965 257.609 349.568 256.011 349.858 253.99ZM454.264 367.365H349.858C349.568 369.385 347.965 370.983 345.944 371.273L345.944 475.513C347.965 475.803 349.568 477.401 349.858 479.421H454.264C454.554 477.401 456.157 475.803 458.178 475.514V371.273C456.157 370.983 454.554 369.385 454.264 367.365ZM349.858 480.74H454.263C454.553 482.76 456.156 484.359 458.178 484.648V588.888C456.156 589.177 454.554 590.775 454.264 592.796H349.858C349.568 590.775 347.965 589.177 345.944 588.888L345.944 484.648C347.965 484.359 349.568 482.76 349.858 480.74ZM454.264 594.115H349.858C349.568 596.135 347.965 597.733 345.944 598.022L345.944 702.263C347.965 702.552 349.568 704.15 349.858 706.17H454.264C454.554 704.15 456.157 702.552 458.178 702.263V598.022C456.157 597.733 454.554 596.135 454.264 594.115ZM349.858 707.489H454.263C454.553 709.51 456.156 711.108 458.178 711.398V819.545H345.944L345.944 711.398C347.965 711.108 349.568 709.51 349.858 707.489ZM340.709 707.489C340.999 709.51 342.602 711.108 344.624 711.398V819.545H232.39L232.39 711.398C234.411 711.108 236.014 709.51 236.304 707.489H340.709ZM344.624 702.263C342.602 702.552 341 704.15 340.709 706.17H236.304C236.014 704.15 234.411 702.552 232.39 702.263L232.39 598.022C234.411 597.733 236.014 596.135 236.304 594.115H340.709C341 596.135 342.602 597.733 344.624 598.022V702.263ZM340.709 592.796C340.999 590.775 342.602 589.177 344.624 588.888V484.648C342.602 484.359 340.999 482.76 340.709 480.74H236.304C236.014 482.76 234.411 484.359 232.39 484.648L232.39 588.888C234.411 589.177 236.014 590.775 236.304 592.796H340.709ZM344.624 475.514C342.603 475.803 341 477.401 340.709 479.421H236.304C236.014 477.401 234.411 475.803 232.39 475.513L232.39 371.273C234.411 370.983 236.014 369.385 236.304 367.365H340.709C341 369.385 342.602 370.983 344.624 371.273V475.514ZM340.709 366.046C340.999 364.026 342.602 362.427 344.624 362.138V257.898C342.602 257.609 340.999 256.011 340.709 253.99H236.304C236.014 256.011 234.411 257.609 232.39 257.898L232.39 362.138C234.411 362.427 236.014 364.026 236.304 366.046H340.709ZM344.624 248.764C342.603 249.053 341 250.651 340.709 252.671H236.304C236.014 250.651 234.411 249.053 232.39 248.764L232.39 144.523C234.411 144.234 236.014 142.636 236.304 140.615H340.709C341 142.635 342.602 144.233 344.624 144.523V248.764ZM340.709 139.296C340.999 137.276 342.602 135.678 344.624 135.388V31.1487C342.602 30.8593 340.999 29.261 340.709 27.2405H236.304C236.014 29.2611 234.411 30.8594 232.39 31.1487L232.39 135.388C234.411 135.678 236.014 137.276 236.304 139.296H340.709ZM344.624 22.0143C342.603 22.3037 341 23.9015 340.709 25.9216H236.304C236.014 23.9014 234.411 22.3035 232.39 22.0142L232.39 -82.2267C234.411 -82.516 236.014 -84.114 236.304 -86.1343H340.709C341 -84.1141 342.602 -82.5161 344.624 -82.2267V22.0143ZM340.709 -87.4532C340.999 -89.4736 342.602 -91.0717 344.624 -91.3612V-195.601C342.602 -195.89 340.999 -197.489 340.709 -199.51H236.304C236.015 -197.489 234.411 -195.89 232.39 -195.601V-91.3612C234.411 -91.0719 236.014 -89.4737 236.304 -87.4532H340.709ZM122.75 -199.51H227.155C227.445 -197.489 229.048 -195.89 231.069 -195.601V-91.3612C229.048 -91.0717 227.445 -89.4736 227.155 -87.4532H122.75C122.46 -89.4737 120.857 -91.0719 118.836 -91.3612V-195.601C120.857 -195.89 122.46 -197.489 122.75 -199.51ZM227.155 -86.1343H122.75C122.46 -84.1142 120.857 -82.5163 118.836 -82.2268V22.0143C120.857 22.3039 122.46 23.9016 122.75 25.9216H227.155C227.446 23.9015 229.048 22.3037 231.069 22.0143V-82.2267C229.048 -82.5161 227.445 -84.1141 227.155 -86.1343ZM122.75 27.2405H227.155C227.445 29.261 229.048 30.8593 231.069 31.1487V135.388C229.048 135.678 227.445 137.276 227.155 139.296H122.75C122.46 137.276 120.857 135.678 118.836 135.388L118.836 31.1487C120.857 30.8594 122.46 29.2611 122.75 27.2405ZM227.155 140.615H122.75C122.46 142.635 120.857 144.233 118.836 144.523V248.764C120.857 249.053 122.46 250.651 122.75 252.671H227.155C227.446 250.651 229.048 249.053 231.069 248.764V144.523C229.048 144.233 227.445 142.635 227.155 140.615ZM122.75 253.99H227.155C227.445 256.011 229.048 257.609 231.069 257.898V362.138C229.048 362.427 227.445 364.026 227.155 366.046H122.75C122.46 364.026 120.857 362.427 118.836 362.138L118.836 257.898C120.857 257.609 122.46 256.011 122.75 253.99ZM227.155 367.365H122.75C122.46 369.385 120.857 370.983 118.836 371.272V475.514C120.857 475.803 122.46 477.401 122.75 479.421H227.155C227.446 477.401 229.048 475.803 231.069 475.514V371.273C229.048 370.983 227.445 369.385 227.155 367.365ZM122.75 480.74H227.155C227.445 482.76 229.048 484.359 231.069 484.648V588.888C229.048 589.177 227.445 590.775 227.155 592.796H122.75C122.46 590.775 120.857 589.177 118.836 588.888L118.836 484.648C120.857 484.359 122.46 482.76 122.75 480.74ZM227.155 594.115H122.75C122.46 596.135 120.857 597.733 118.836 598.022V702.263C120.857 702.553 122.46 704.15 122.75 706.17H227.155C227.446 704.15 229.048 702.552 231.069 702.263V598.022C229.048 597.733 227.445 596.135 227.155 594.115ZM122.75 707.489H227.155C227.445 709.51 229.048 711.108 231.069 711.398V819.545H118.836L118.836 711.398C120.857 711.108 122.46 709.51 122.75 707.489ZM113.601 707.489C113.891 709.51 115.494 711.108 117.515 711.398V819.545H5.28145V711.398C7.30283 711.108 8.90591 709.51 9.1959 707.489H113.601ZM117.515 702.263C115.494 702.552 113.891 704.15 113.601 706.17H9.1958C8.90558 704.15 7.30293 702.553 5.28207 702.263V598.022C7.30299 597.733 8.90569 596.135 9.19583 594.115H113.601C113.891 596.135 115.494 597.733 117.515 598.022V702.263ZM113.601 592.796C113.891 590.775 115.494 589.177 117.515 588.888V484.648C115.494 484.359 113.891 482.76 113.601 480.74H9.19591C8.90598 482.76 7.30287 484.359 5.28145 484.648V588.888C7.30278 589.177 8.90584 590.775 9.19588 592.796H113.601ZM117.515 475.514C115.494 475.803 113.891 477.401 113.601 479.421H9.19578C8.90552 477.401 7.30289 475.803 5.28207 475.514V371.272C7.30299 370.983 8.90569 369.385 9.19583 367.365H113.601C113.891 369.385 115.494 370.983 117.515 371.273V475.514ZM113.601 366.046C113.891 364.026 115.494 362.427 117.515 362.138V257.898C115.494 257.609 113.891 256.011 113.601 253.99H9.19592C8.90599 256.011 7.30288 257.609 5.28145 257.898V362.138C7.3028 362.427 8.90587 364.026 9.19588 366.046H113.601ZM117.515 248.764C115.494 249.053 113.891 250.651 113.601 252.671H9.19579C8.90554 250.651 7.3029 249.053 5.28207 248.764V144.523C7.30301 144.233 8.90571 142.635 9.19583 140.615H113.601C113.891 142.635 115.494 144.233 117.515 144.523V248.764ZM113.601 139.296C113.891 137.276 115.494 135.678 117.515 135.388V31.1487C115.494 30.8593 113.891 29.261 113.601 27.2405H9.19591C8.90597 29.2611 7.30287 30.8594 5.28145 31.1487V135.388C7.3028 135.678 8.90586 137.276 9.19588 139.296H113.601ZM117.515 22.0143C115.494 22.3037 113.891 23.9015 113.601 25.9216H9.19579C8.90555 23.9016 7.30291 22.3038 5.28207 22.0143V-82.2268C7.303 -82.5163 8.9057 -84.1142 9.19583 -86.1343H113.601C113.891 -84.1141 115.494 -82.5161 117.515 -82.2267V22.0143ZM113.601 -87.4532C113.891 -89.4736 115.494 -91.0717 117.515 -91.3612V-195.601C115.494 -195.89 113.891 -197.489 113.601 -199.51H9.19601C8.90632 -197.489 7.30309 -195.89 5.28145 -195.601V-91.3612C7.3028 -91.0719 8.90587 -89.4737 9.19588 -87.4532H113.601Z" fill="url(#paint0_radial_339_4870)"/>
<g clip-path="url(#clip0_339_4870)">
<path d="M325.571 306.721C325.571 309.15 325.072 311.579 324.075 313.865C323.291 315.722 322.222 317.508 320.868 319.223C308.539 334.867 273.834 346.154 233 346.154C190.74 346.154 155.179 334.153 143.991 317.722C143.136 316.437 142.423 315.222 141.853 313.865C140.855 311.507 140.356 309.15 140.356 306.721C140.356 284.933 181.832 267.217 233 267.217C284.096 267.217 325.571 284.862 325.571 306.721Z" fill="#CAFF56" stroke="#1C3201" stroke-width="0.62569" stroke-miterlimit="10" stroke-linecap="round" stroke-linejoin="round"/>
<path d="M312.317 306.721C312.317 308.221 312.103 309.65 311.676 311.079C306.687 294.434 273.336 281.576 232.929 281.576C192.594 281.576 159.242 294.434 154.254 311.007C153.826 309.579 153.612 308.15 153.612 306.65C153.612 288.005 189.173 272.86 233 272.86C276.828 272.86 312.317 288.005 312.317 306.721Z" fill="#548704" stroke="#1C3201" stroke-width="0.62569" stroke-miterlimit="10" stroke-linecap="round" stroke-linejoin="round"/>
<path d="M311.675 311.007C306.686 327.652 273.335 340.51 232.928 340.51C192.593 340.51 159.241 327.652 154.253 311.007C159.241 294.362 192.593 281.504 232.928 281.504C273.335 281.575 306.686 294.434 311.675 311.007Z" fill="url(#paint1_linear_339_4870)" stroke="#1C3201" stroke-width="0.62569" stroke-miterlimit="10" stroke-linecap="round" stroke-linejoin="round"/>
<path d="M325.57 306.721V321.079C325.57 342.868 284.095 360.584 232.927 360.584C181.76 360.584 140.284 342.939 140.284 321.079V306.721C140.284 309.15 140.783 311.578 141.781 313.864C142.351 315.15 143.063 316.436 143.919 317.722C155.107 334.152 190.668 346.225 232.856 346.225C273.761 346.225 308.396 334.938 320.724 319.294C322.078 317.579 323.147 315.793 323.931 313.936C325.071 311.507 325.57 309.15 325.57 306.721Z" fill="url(#paint2_linear_339_4870)"/>
<path d="M214.474 304.721H209.414V307.65H214.474V304.721Z" fill="#548704" stroke="#1C3201" stroke-width="0.62569" stroke-miterlimit="10" stroke-linecap="round" stroke-linejoin="round"/>
<path d="M235.851 304.721H224.947V307.65H235.851V304.721Z" fill="#548704" stroke="#1C3201" stroke-width="0.62569" stroke-miterlimit="10" stroke-linecap="round" stroke-linejoin="round"/>
<path d="M235.925 313.222V316.865H227.017C226.091 315.865 225.45 314.65 225.165 313.222H235.925Z" fill="#548704" stroke="#1C3201" stroke-width="0.62569" stroke-miterlimit="10" stroke-linecap="round" stroke-linejoin="round"/>
<path d="M256.519 314.793V316.079C256.519 320.294 254.809 323.652 251.388 326.08C247.968 328.581 242.837 329.795 235.924 329.795C229.368 329.795 224.166 328.509 220.317 325.866C217.111 323.652 215.258 320.651 214.688 316.794H209.414V313.15H214.688C215.258 317.008 217.111 320.008 220.317 322.223C224.166 324.866 229.368 326.152 235.924 326.152C242.837 326.152 248.039 324.866 251.388 322.437C254.168 320.437 255.807 317.865 256.306 314.722H256.519V314.793Z" fill="#548704" stroke="#1C3201" stroke-width="0.62569" stroke-miterlimit="10" stroke-linecap="round" stroke-linejoin="round"/>
<path d="M256.517 304.149V305.434H246.042V304.434C246.042 302.148 245.186 300.291 243.547 298.934C241.908 297.505 239.343 296.862 235.922 296.862C233.499 296.862 231.432 297.219 229.793 298.005C229.081 298.362 228.368 298.719 227.798 299.219H225.304C225.518 298.576 225.731 298.005 226.088 297.434C226.872 296.148 228.083 295.148 229.722 294.362C231.361 293.576 233.428 293.219 235.851 293.219C239.271 293.219 241.837 293.933 243.476 295.29C245.115 296.719 245.97 298.505 245.97 300.791V301.791H256.232C256.446 302.577 256.517 303.363 256.517 304.149Z" fill="#548704" stroke="#1C3201" stroke-width="0.62569" stroke-miterlimit="10" stroke-linecap="round" stroke-linejoin="round"/>
<path d="M246.044 314.794H256.306C255.807 317.937 254.168 320.509 251.389 322.509C247.968 325.009 242.837 326.224 235.924 326.224C229.368 326.224 224.166 324.866 220.317 322.295C217.111 320.08 215.258 317.08 214.688 313.222H209.414V311.293H214.474V308.364H209.414V307.65H214.474V304.721H209.414V302.792H214.759C215.115 300.864 215.899 299.149 217.039 297.578C218.75 295.292 221.173 293.434 224.379 292.22C227.586 290.934 231.435 290.291 235.924 290.291C242.552 290.291 247.612 291.505 251.175 294.006C254.025 296.006 255.807 298.578 256.306 301.721H246.044V300.721C246.044 298.435 245.189 296.577 243.549 295.22C241.91 293.863 239.345 293.148 235.924 293.148C233.501 293.148 231.435 293.506 229.796 294.291C228.156 295.077 226.945 296.077 226.161 297.363C225.805 297.935 225.591 298.506 225.377 299.149H227.871C227.159 299.721 226.589 300.292 226.232 301.006C225.876 301.578 225.662 302.149 225.448 302.792H235.995V304.721H225.092V307.65H235.995V308.364H225.092V311.293H235.995V313.222H225.235C225.52 314.651 226.161 315.865 227.088 316.865H225.235C225.591 318.508 226.375 319.937 227.586 321.009C229.297 322.58 232.076 323.366 235.924 323.366C239.701 323.366 242.338 322.652 243.835 321.223C245.331 319.794 246.115 318.008 246.115 315.722V314.794H246.044Z" fill="#90DB04" stroke="#1C3201" stroke-width="0.62569" stroke-miterlimit="10" stroke-linecap="round" stroke-linejoin="round"/>
<path d="M246.045 301.792V300.792C246.045 298.506 245.19 296.648 243.55 295.291C241.911 293.934 239.346 293.219 235.925 293.219C233.502 293.219 231.436 293.577 229.797 294.362C228.157 295.148 226.946 296.148 226.162 297.434C225.806 298.006 225.592 298.577 225.378 299.22H235.925V304.721H225.022V307.65H235.925V313.222H225.164C225.449 314.65 226.091 315.865 227.017 316.865C227.16 317.079 227.374 317.222 227.587 317.436C229.298 319.008 232.077 319.794 235.925 319.794C239.702 319.794 242.339 319.079 243.836 317.651C245.332 316.222 246.116 314.436 246.116 312.15V311.15H256.592V312.436C256.592 313.222 256.521 314.007 256.378 314.793C255.879 317.936 254.24 320.508 251.461 322.508C248.04 325.009 242.909 326.223 235.996 326.223C229.44 326.223 224.238 324.866 220.39 322.294C217.183 320.08 215.33 317.079 214.76 313.222H209.486V307.65H214.546V304.721H209.486V299.22H214.831C215.187 297.291 215.971 295.577 217.112 294.005C218.822 291.719 221.245 289.862 224.452 288.648C227.659 287.362 231.507 286.719 235.996 286.719C242.624 286.719 247.684 287.933 251.247 290.433C254.81 292.934 256.592 296.291 256.592 300.506V301.792H246.045Z" fill="url(#paint3_linear_339_4870)" stroke="#1C3201" stroke-width="0.62569" stroke-miterlimit="10" stroke-linecap="round" stroke-linejoin="round"/>
</g>
<g clip-path="url(#clip1_339_4870)">
<path d="M428.793 319.848C428.314 322.229 427.346 324.511 425.917 326.554C424.783 328.22 423.383 329.759 421.717 331.171C406.547 344.064 370.3 348.25 330.272 340.158C288.846 331.784 256.354 312.972 248.627 294.649C248.042 293.219 247.583 291.887 247.292 290.444C246.779 287.935 246.755 285.526 247.234 283.145C251.531 261.787 295.681 252.639 345.839 262.779C395.927 272.904 433.104 298.42 428.793 319.848Z" fill="#CAFF56" stroke="#1A1C17" stroke-width="0.62569" stroke-miterlimit="10" stroke-linecap="round" stroke-linejoin="round"/>
<path d="M415.8 317.222C415.504 318.693 415.013 320.051 414.312 321.366C412.705 304.062 382.547 284.848 342.938 276.84C303.399 268.847 268.169 274.843 260.011 290.1C259.874 288.615 259.946 287.172 260.242 285.702C263.919 267.425 301.764 259.626 344.727 268.311C387.689 276.996 419.491 298.875 415.8 317.222Z" fill="#548704" stroke="#1A1C17" stroke-width="0.62569" stroke-miterlimit="10" stroke-linecap="round" stroke-linejoin="round"/>
<path d="M414.328 321.296C406.155 336.623 370.926 342.619 331.317 334.612C291.778 326.618 261.62 307.404 260.013 290.1C268.185 274.772 303.414 268.776 342.954 276.77C382.549 284.847 412.706 304.061 414.328 321.296Z" fill="url(#paint4_linear_339_4870)" stroke="#1C3201" stroke-width="0.62569" stroke-miterlimit="10" stroke-linecap="round" stroke-linejoin="round"/>
<path d="M428.792 319.849L425.96 333.924C421.663 355.282 377.513 364.43 327.355 354.29C277.197 344.15 240.02 318.634 244.331 297.206L247.163 283.131C246.684 285.512 246.694 287.992 247.221 290.43C247.526 291.804 247.971 293.205 248.556 294.635C256.283 312.959 288.761 331.84 330.117 340.2C370.215 348.307 406.392 344.106 421.562 331.213C423.228 329.801 424.628 328.262 425.762 326.597C427.359 324.442 428.313 322.23 428.792 319.849Z" fill="url(#paint5_linear_339_4870)"/>
<path d="M348.743 307.966C347.864 307.279 346.481 306.562 344.596 305.816C344.26 305.676 343.786 305.507 343.45 305.366L342.732 308.937C343.137 309.092 343.542 309.247 343.891 309.318C345.777 310.063 347.173 310.71 348.039 311.468C348.164 311.566 348.29 311.664 348.416 311.763C349.227 311.344 349.773 310.798 349.9 310.168C350.055 309.398 349.623 308.654 348.743 307.966ZM349.826 294.995C348.989 294.097 347.69 293.324 346 292.691L345.282 296.263C347.028 296.98 348.326 297.753 349.108 298.566C349.945 299.464 350.251 300.474 350.039 301.524L350.758 297.953C350.983 296.832 350.663 295.893 349.826 294.995ZM328.962 319.563L328.244 323.134L339.421 325.394L340.14 321.822L328.962 319.563ZM331.246 290.146C329.372 290.423 328.295 291.08 328.084 292.13C327.943 292.83 328.18 293.461 328.849 294.107C329.325 293.911 329.87 293.73 330.541 293.647C331.52 293.481 332.75 293.511 334.175 293.653L334.894 290.082C333.454 290.009 332.224 289.979 331.246 290.146Z" fill="#548704" stroke="#1A1C17" stroke-width="0.62569" stroke-miterlimit="10" stroke-linecap="round" stroke-linejoin="round"/>
<path d="M362.004 312.541L361.285 316.112C360.933 317.863 359.561 319.262 357.338 320.197C355.044 321.118 351.968 321.589 348.111 321.611C345.777 321.649 343.136 321.407 340.313 320.982L341.032 317.411C343.799 317.751 346.51 318.008 348.83 318.04C352.687 318.018 355.762 317.546 358.056 316.625C359.091 316.179 359.916 315.69 360.546 315.088C360.826 314.781 361.092 314.543 361.302 314.221C361.625 313.703 361.891 313.101 362.004 312.541Z" fill="#548704" stroke="#1A1C17" stroke-width="0.62569" stroke-miterlimit="10" stroke-linecap="round" stroke-linejoin="round"/>
<path d="M362.659 301.67L361.941 305.242L353.139 303.462C352.943 303.35 352.803 303.321 352.608 303.209C351.742 302.815 350.862 302.492 349.912 302.154L350.504 299.213L362.659 301.67Z" fill="#548704" stroke="#1A1C17" stroke-width="0.62569" stroke-miterlimit="10" stroke-linecap="round" stroke-linejoin="round"/>
<path d="M332.531 301.846L331.812 305.417C329.019 304.488 326.379 303.517 324.228 302.645L324.242 302.575L323.683 302.462C320.611 301.112 318.335 299.778 316.883 298.318C315.362 296.845 314.806 295.275 315.172 293.454L315.891 289.883C315.764 290.513 315.777 291.172 315.874 291.774C315.86 291.844 315.915 291.928 315.901 291.998C316.137 292.993 316.681 293.905 317.602 294.747C319.053 296.206 321.399 297.555 324.402 298.891C326.678 299.861 329.458 300.86 332.531 301.846Z" fill="#548704" stroke="#1A1C17" stroke-width="0.62569" stroke-miterlimit="10" stroke-linecap="round" stroke-linejoin="round"/>
<path d="M329.867 315.081L329.148 318.652C326.466 317.891 323.938 317.089 321.731 316.133C318.044 314.586 315.279 312.788 313.34 310.865C312.503 309.967 311.875 309.112 311.485 308.159C311.054 307.051 310.916 305.93 311.141 304.81L311.86 301.238C311.705 302.009 311.704 302.737 311.856 303.424C311.912 303.508 311.884 303.648 311.94 303.732C312.203 304.951 312.914 306.115 314.058 307.294C315.928 309.202 318.692 311 322.45 312.561C324.586 313.503 327.115 314.306 329.867 315.081Z" fill="#548704" stroke="#1A1C17" stroke-width="0.62569" stroke-miterlimit="10" stroke-linecap="round" stroke-linejoin="round"/>
<path d="M360.024 307.55C358.419 306.132 356.158 304.728 353.155 303.392C352.959 303.28 352.82 303.251 352.624 303.139C351.758 302.745 350.878 302.422 349.928 302.084C348.238 301.451 346.409 300.789 344.495 300.184L346.016 292.621C347.762 293.338 349.061 294.111 349.842 294.925C350.679 295.823 350.999 296.762 350.774 297.882L350.52 299.143L362.675 301.6L362.929 300.34C363.352 298.239 362.656 296.276 360.842 294.452C359.028 292.628 356.375 290.998 352.883 289.564C351.068 288.832 349.168 288.157 347.031 287.579L347.932 283.097L336.755 280.838L335.868 285.249C333.185 284.853 330.544 284.61 328.294 284.593C324.73 284.601 321.808 285.031 319.668 285.91C317.529 286.789 316.241 288.132 315.888 289.883C315.762 290.513 315.775 291.171 315.871 291.774C315.857 291.844 315.913 291.928 315.899 291.998C316.135 292.993 316.679 293.905 317.6 294.747C319.051 296.206 321.397 297.555 324.399 298.891C326.676 299.861 329.456 300.86 332.515 301.916L330.838 310.249C329.274 309.714 327.947 309.082 326.844 308.421C324.582 307.017 323.648 305.516 324 303.765L324.24 302.575L312.085 300.118L311.845 301.308C311.69 302.078 311.689 302.807 311.842 303.494C311.897 303.578 311.869 303.718 311.925 303.802C312.188 305.021 312.899 306.185 314.044 307.364C315.913 309.272 318.678 311.07 322.435 312.631C324.641 313.587 327.17 314.39 329.852 315.151L328.95 319.633L340.127 321.892L341.029 317.41C343.796 317.751 346.507 318.008 348.827 318.039C352.684 318.018 355.76 317.546 358.053 316.625C359.088 316.179 359.913 315.69 360.543 315.088C360.823 314.78 361.089 314.543 361.299 314.221C361.692 313.717 361.874 313.171 362.001 312.541C362.367 310.72 361.755 309.066 360.024 307.55ZM333.571 296.664C333.236 296.523 332.831 296.368 332.496 296.228C330.89 295.539 329.717 294.864 328.977 294.205C328.907 294.191 328.921 294.121 328.851 294.106C328.182 293.461 327.945 292.83 328.086 292.13C328.297 291.079 329.389 290.353 331.248 290.145C332.226 289.979 333.456 290.009 334.881 290.151L333.571 296.664ZM348.403 311.832C347.844 312.084 347.075 312.293 346.166 312.473C345.048 312.611 343.664 312.623 342.015 312.509L343.438 305.436C343.843 305.591 344.248 305.745 344.584 305.886C346.469 306.632 347.866 307.278 348.731 308.036C349.61 308.724 349.973 309.453 349.803 310.294C349.747 310.938 349.215 311.413 348.403 311.832Z" fill="url(#paint6_linear_339_4870)" stroke="#1C3201" stroke-width="0.62569" stroke-miterlimit="10" stroke-linecap="round" stroke-linejoin="round"/>
</g>
<defs>
<radialGradient id="paint0_radial_339_4870" cx="0" cy="0" r="1" gradientUnits="userSpaceOnUse" gradientTransform="translate(288.507 308) rotate(90) scale(310.202 362.633)">
<stop stop-color="#90DB04"/>
<stop offset="0.85" stop-color="#1A1C17" stop-opacity="0"/>
</radialGradient>
<linearGradient id="paint1_linear_339_4870" x1="287.266" y1="308.817" x2="165.375" y2="300.288" gradientUnits="userSpaceOnUse">
<stop stop-color="#90DB04"/>
<stop offset="1" stop-color="#ECFFC7"/>
</linearGradient>
<linearGradient id="paint2_linear_339_4870" x1="140.284" y1="333.652" x2="325.57" y2="333.652" gradientUnits="userSpaceOnUse">
<stop stop-color="#094809"/>
<stop offset="1" stop-color="#031803"/>
</linearGradient>
<linearGradient id="paint3_linear_339_4870" x1="249.288" y1="305.005" x2="212.672" y2="303.86" gradientUnits="userSpaceOnUse">
<stop stop-color="#90DB04"/>
<stop offset="1" stop-color="#ECFFC7"/>
</linearGradient>
<linearGradient id="paint4_linear_339_4870" x1="390.832" y1="314.312" x2="273" y2="281.902" gradientUnits="userSpaceOnUse">
<stop stop-color="#90DB04"/>
<stop offset="1" stop-color="#ECFFC7"/>
</linearGradient>
<linearGradient id="paint5_linear_339_4870" x1="241.851" y1="309.531" x2="423.515" y2="346.078" gradientUnits="userSpaceOnUse">
<stop stop-color="#094809"/>
<stop offset="1" stop-color="#031803"/>
</linearGradient>
<linearGradient id="paint6_linear_339_4870" x1="355.721" y1="303.36" x2="316.836" y2="294.149" gradientUnits="userSpaceOnUse">
<stop stop-color="#90DB04"/>
<stop offset="1" stop-color="#ECFFC7"/>
</linearGradient>
<clipPath id="clip0_339_4870">
<rect width="185.927" height="94.0104" fill="white" transform="translate(140 266.859)"/>
</clipPath>
<clipPath id="clip1_339_4870">
<rect width="185.945" height="94.0015" fill="white" transform="matrix(0.980172 0.198149 -0.19723 0.980357 254.742 244)"/>
</clipPath>
</defs>
</svg>
