<svg width="83" height="26" viewBox="0 0 83 26" fill="none" xmlns="http://www.w3.org/2000/svg"><path fill-rule="evenodd" clip-rule="evenodd" d="M0 0V25.0574H4.72511V15.6072H11.3116C12.0037 15.6072 12.4929 15.7862 12.7793 16.1441C13.0895 16.5021 13.2446 16.9675 13.2446 17.5402V25.0574H17.9697V16.8601C17.9697 15.8578 17.7072 15.0583 17.1822 14.4617C16.6572 13.8412 15.9174 13.5071 14.9629 13.4594V12.8151C16.0129 12.3855 16.8959 11.7054 17.6118 10.7747C18.3277 9.84399 18.6857 8.62691 18.6857 7.12347V6.69391C18.6857 5.33365 18.3635 4.15237 17.7192 3.15008C17.0748 2.14778 16.168 1.37219 14.9987 0.823315C13.8293 0.274438 12.4571 0 10.8821 0H0ZM10.3809 11.3116H4.72511V4.29556H10.3809C11.5264 4.29556 12.4094 4.60579 13.0299 5.22626C13.6503 5.82287 13.9606 6.62232 13.9606 7.62461V7.98258C13.9606 8.98487 13.6384 9.79626 12.9941 10.4167C12.3736 11.0133 11.5025 11.3116 10.3809 11.3116ZM50.1683 25.0574V0H54.6786V25.0574H50.1683ZM57.885 0V25.0574H62.3953V0H57.885ZM67.715 24.9146C68.7173 25.3441 69.8508 25.5589 71.1156 25.5589C72.3566 25.5589 73.335 25.3799 74.0509 25.0219C74.7668 24.664 75.2919 24.2583 75.626 23.8049C75.9601 23.3276 76.1748 22.9458 76.2703 22.6594H76.9504V22.6952C76.9504 23.4111 77.2368 23.9838 77.8095 24.4134C78.3823 24.843 79.1101 25.0577 79.9931 25.0577H83V21.3349H81.5681C80.8999 21.3349 80.5658 20.977 80.5658 20.261V13.6387C80.5658 11.4193 79.8857 9.72498 78.5255 8.55564C77.1652 7.38629 75.3157 6.80162 72.977 6.80162C71.4497 6.80162 70.1491 7.04026 69.0752 7.51755C68.0252 7.97097 67.178 8.5795 66.5337 9.34316C65.9132 10.0829 65.4598 10.9063 65.1734 11.8131L69.3258 13.2092C69.4929 12.3978 69.8508 11.7415 70.3997 11.2404C70.9486 10.7153 71.7838 10.4528 72.9054 10.4528C74.0509 10.4528 74.8862 10.7273 75.4112 11.2762C75.9362 11.8012 76.1987 12.4813 76.1987 13.3165V14.3188H71.3304C69.994 14.3188 68.8008 14.5336 67.7508 14.9632C66.7246 15.3689 65.9132 15.9893 65.3166 16.8246C64.7439 17.636 64.4575 18.6502 64.4575 19.8673C64.4575 21.0843 64.7439 22.1224 65.3166 22.9816C65.9132 23.8168 66.7127 24.4611 67.715 24.9146ZM74.9816 20.8696C74.1941 21.5616 73.1679 21.9077 71.9031 21.9077C70.9486 21.9077 70.2207 21.7048 69.7196 21.2991C69.2184 20.8934 68.9678 20.3684 68.9678 19.7241C68.9678 19.0798 69.2065 18.5786 69.6838 18.2206C70.161 17.8627 70.8173 17.6837 71.6526 17.6837H76.1987V18.0417C76.1987 19.211 75.793 20.1536 74.9816 20.8696Z" fill="white"></path><path fill-rule="evenodd" clip-rule="evenodd" d="M46.8781 15.5024L40.088 14.1591C40.1598 13.796 40.1986 13.4155 40.1986 13.0192C40.1986 12.6228 40.1598 12.2423 40.088 11.8792L46.8781 10.5359C47.037 11.339 47.1203 12.1694 47.1203 13.0192C47.1203 13.8689 47.037 14.6993 46.8781 15.5024ZM44.9771 5.94937L39.2254 9.80009C38.7997 9.16434 38.2509 8.61552 37.6152 8.18989L41.4659 2.43812C42.8535 3.3671 44.0482 4.56178 44.9771 5.94937ZM36.8794 0.537115L35.5361 7.32729C35.173 7.25545 34.7925 7.21669 34.3961 7.21669C33.9997 7.21669 33.6193 7.25545 33.2561 7.32729L31.9128 0.537115C32.716 0.378227 33.5463 0.294922 34.3961 0.294922C35.2459 0.294922 36.0762 0.378227 36.8794 0.537115ZM27.3263 2.43812L31.177 8.18989C30.5413 8.61552 29.9925 9.16433 29.5668 9.80009L23.8151 5.94937C24.744 4.56178 25.9387 3.36709 27.3263 2.43812ZM21.9141 10.5359C21.7552 11.339 21.6719 12.1694 21.6719 13.0192C21.6719 13.8689 21.7552 14.6993 21.9141 15.5024L28.7042 14.1591C28.6324 13.796 28.5936 13.4155 28.5936 13.0192C28.5936 12.6228 28.6324 12.2423 28.7042 11.8792L21.9141 10.5359ZM23.8151 20.0889L29.5668 16.2382C29.9925 16.874 30.5413 17.4228 31.177 17.8484L27.3263 23.6002C25.9387 22.6712 24.744 21.4765 23.8151 20.0889ZM31.9128 25.5012L33.2561 18.711C33.6193 18.7829 33.9997 18.8216 34.3961 18.8216C34.7925 18.8216 35.173 18.7829 35.5361 18.711L36.8794 25.5012C36.0762 25.6601 35.2459 25.7434 34.3961 25.7434C33.5463 25.7434 32.716 25.6601 31.9128 25.5012ZM41.4659 23.6002L37.6152 17.8484C38.2509 17.4228 38.7997 16.874 39.2254 16.2382L44.9771 20.0889C44.0482 21.4765 42.8535 22.6712 41.4659 23.6002Z" fill="#90DB04"></path></svg>